<svg xmlns="http://www.w3.org/2000/svg" width="500" height="500" viewBox="0 0 500 500">
<g>
<path d="M 283.00 194.97 L 283.00 249.50 L 260.00 249.50 L 260.00 139.11 L 262.22 137.56 C263.77,136.47 266.80,136.00 272.17,136.00 C279.01,136.00 280.06,136.25 281.44,138.22 C282.81,140.17 283.00,147.24 283.00,194.97 ZM 230.00 194.58 L 230.00 249.50 L 207.00 249.50 L 207.00 194.75 C207.00,189.59 206.99,184.87 206.99,180.57 C206.93,147.23 206.92,138.60 210.61,136.51 C211.90,135.78 213.64,135.84 215.99,135.93 C216.85,135.96 217.80,136.00 218.85,136.00 C225.18,136.00 227.01,136.35 228.35,137.83 C229.84,139.48 230.00,144.88 230.00,194.58 Z" fill="rgb(0,149,176)"/>
<path d="M 320.47 246.78 L 318.57 250.00 L 295.00 250.00 L 295.00 241.00 L 299.35 241.00 C305.75,241.00 306.67,239.42 307.45,227.00 C308.46,210.86 309.51,206.84 314.01,201.72 L 317.91 197.29 L 314.87 194.40 C309.74,189.52 308.89,186.75 307.85,171.62 C307.21,162.34 306.42,157.03 305.54,156.14 C304.81,155.39 302.13,154.54 299.60,154.26 L 295.00 153.74 L 295.00 140.00 L 302.29 140.00 C307.86,140.00 310.62,140.53 314.02,142.25 C320.97,145.77 322.17,148.82 323.12,165.31 C323.57,173.07 324.20,180.61 324.52,182.08 C325.30,185.63 329.10,189.07 333.18,189.90 L 336.50 190.58 L 336.50 204.37 L 333.00 205.27 C325.21,207.27 324.02,210.13 323.09,229.03 C322.52,240.62 321.99,244.21 320.47,246.78 ZM 195.00 246.07 L 195.00 250.00 L 183.12 250.00 C171.27,250.00 171.22,249.99 169.44,247.27 C168.04,245.12 167.49,241.37 166.90,229.92 C166.09,214.01 164.80,209.22 160.58,206.46 C158.20,204.90 158.00,204.21 158.00,197.57 C158.00,190.71 158.14,190.27 161.05,188.12 C165.39,184.91 166.08,182.31 166.96,165.88 C167.84,149.22 168.80,146.61 175.36,142.92 C178.28,141.28 181.57,140.52 187.20,140.19 L 195.00 139.74 L 195.00 153.74 L 190.11 154.39 C187.41,154.75 184.78,155.59 184.25,156.27 C183.72,156.95 182.81,163.86 182.24,171.64 C181.10,186.93 180.58,188.60 175.21,194.22 L 171.65 197.94 L 174.35 200.06 C179.43,204.06 181.07,209.05 182.19,223.87 C182.76,231.37 183.65,238.03 184.18,238.69 C184.71,239.34 186.57,240.16 188.32,240.51 C194.89,241.83 195.00,241.92 195.00,246.07 Z" fill="rgb(0,190,98)"/>
<path d="M 0.00 0.00 L 500.00 0.00 L 500.00 500.00 L 0.00 500.00 ZM 283.00 194.97 C283.00,147.24 282.81,140.17 281.44,138.22 C280.06,136.25 279.01,136.00 272.17,136.00 C266.80,136.00 263.77,136.47 262.22,137.56 L 260.00 139.11 L 260.00 249.50 L 283.00 249.50 ZM 230.00 194.58 C230.00,144.88 229.84,139.48 228.35,137.83 C227.01,136.35 225.18,136.00 218.85,136.00 C217.80,136.00 216.85,135.96 215.99,135.93 C213.64,135.84 211.90,135.78 210.61,136.51 C206.92,138.60 206.93,147.23 206.99,180.57 C206.99,184.87 207.00,189.59 207.00,194.75 L 207.00 249.50 L 230.00 249.50 ZM 320.47 246.78 C321.99,244.21 322.52,240.62 323.09,229.03 C324.02,210.13 325.21,207.27 333.00,205.27 L 336.50 204.37 L 336.50 190.58 L 333.18 189.90 C329.10,189.07 325.30,185.63 324.52,182.08 C324.20,180.61 323.57,173.07 323.12,165.31 C322.17,148.82 320.97,145.77 314.02,142.25 C310.62,140.53 307.86,140.00 302.29,140.00 L 295.00 140.00 L 295.00 153.74 L 299.60 154.26 C302.13,154.54 304.81,155.39 305.54,156.14 C306.42,157.03 307.21,162.34 307.85,171.62 C308.89,186.75 309.74,189.52 314.87,194.40 L 317.91 197.29 L 314.01 201.72 C309.51,206.84 308.46,210.86 307.45,227.00 C306.67,239.42 305.75,241.00 299.35,241.00 L 295.00 241.00 L 295.00 250.00 L 318.57 250.00 ZM 195.00 246.07 C195.00,241.92 194.89,241.83 188.32,240.51 C186.57,240.16 184.71,239.34 184.18,238.69 C183.65,238.03 182.76,231.37 182.19,223.87 C181.07,209.05 179.43,204.06 174.35,200.06 L 171.65 197.94 L 175.21 194.22 C180.58,188.60 181.10,186.93 182.24,171.64 C182.81,163.86 183.72,156.95 184.25,156.27 C184.78,155.59 187.41,154.75 190.11,154.39 L 195.00 153.74 L 195.00 139.74 L 187.20 140.19 C181.57,140.52 178.28,141.28 175.36,142.92 C168.80,146.61 167.84,149.22 166.96,165.88 C166.08,182.31 165.39,184.91 161.05,188.12 C158.14,190.27 158.00,190.71 158.00,197.57 C158.00,204.21 158.20,204.90 160.58,206.46 C164.80,209.22 166.09,214.01 166.90,229.92 C167.49,241.37 168.04,245.12 169.44,247.27 C171.22,249.99 171.27,250.00 183.12,250.00 L 195.00 250.00 ZM 234.00 208.00 C234.00,251.12 234.12,252.48 237.70,248.90 C238.40,248.20 242.14,247.92 247.90,248.15 L 257.00 248.50 L 257.00 207.08 C257.00,169.94 256.83,165.47 255.35,163.83 C254.01,162.35 252.18,162.00 245.85,162.00 C244.96,162.00 244.13,161.98 243.37,161.97 C240.64,161.91 238.70,161.86 237.32,162.73 C233.94,164.84 233.95,172.37 233.99,198.40 C234.00,201.36 234.00,204.55 234.00,208.00 ZM 153.62 307.00 C157.38,308.16 162.87,307.34 166.00,305.14 C167.38,304.17 169.44,301.46 170.58,299.10 L 172.66 294.83 L 174.38 299.33 C177.08,306.40 183.36,309.46 189.19,306.56 C191.25,305.53 192.60,305.31 192.82,305.96 C193.01,306.53 194.93,307.00 197.08,307.00 L 201.00 307.00 L 201.00 272.00 L 193.00 272.00 L 193.00 281.77 L 186.70 281.26 C181.09,280.81 180.10,281.02 177.70,283.13 C176.22,284.43 174.42,287.25 173.69,289.39 L 172.38 293.27 L 170.60 288.62 C168.42,282.91 165.16,281.00 157.58,281.00 C152.85,281.00 151.57,281.44 148.57,284.08 C140.90,290.81 143.80,303.95 153.62,307.00 ZM 243.00 274.00 L 243.00 307.00 L 252.55 307.00 C262.47,307.00 267.15,305.66 268.38,302.46 C269.66,299.13 268.96,294.59 266.84,292.32 C264.72,290.07 264.71,289.98 266.54,287.96 C269.42,284.78 268.99,279.25 265.64,276.37 C263.14,274.22 261.96,274.00 252.94,274.00 ZM 309.12 306.29 C313.33,308.36 314.73,308.39 318.48,306.43 C320.40,305.43 321.59,305.26 321.81,305.94 C322.01,306.52 323.93,307.00 326.08,307.00 L 330.00 307.00 L 330.00 272.00 L 322.00 272.00 L 322.00 281.81 L 316.03 281.27 C311.41,280.85 309.47,281.11 307.45,282.44 C304.49,284.38 301.99,289.58 302.02,293.72 C302.06,298.51 305.43,304.47 309.12,306.29 ZM 340.12 306.29 C344.33,308.36 345.73,308.39 349.48,306.43 C351.40,305.43 352.59,305.26 352.81,305.94 C353.01,306.52 354.93,307.00 357.08,307.00 L 361.00 307.00 L 361.00 272.00 L 353.00 272.00 L 353.00 281.81 L 347.03 281.27 C342.41,280.85 340.47,281.11 338.45,282.44 C335.49,284.38 332.99,289.58 333.02,293.72 C333.06,298.51 336.43,304.47 340.12,306.29 ZM 121.79 307.04 C127.89,308.95 135.85,305.82 139.82,299.95 L 142.15 296.50 L 137.63 296.20 C134.13,295.96 132.64,296.36 131.05,297.95 C126.02,302.98 118.00,298.30 118.00,290.32 C118.00,282.28 125.30,278.31 131.35,283.06 C133.23,284.54 135.10,285.03 138.00,284.81 L 142.03 284.50 L 140.19 281.08 C137.67,276.40 132.83,274.00 125.91,274.00 C116.06,274.00 109.50,280.65 109.64,290.49 C109.76,298.64 114.18,304.66 121.79,307.04 ZM 212.07 306.30 C217.80,309.30 224.86,307.11 228.85,301.11 L 230.39 298.78 L 225.44 299.35 L 225.11 299.39 C217.46,300.26 215.50,300.49 214.38,299.62 C213.97,299.31 213.68,298.86 213.27,298.25 L 211.76 296.00 L 220.91 296.00 C231.33,296.00 232.05,295.45 230.11,288.98 C228.43,283.37 224.92,281.00 218.32,281.00 C211.47,281.00 207.74,282.92 205.52,287.60 C202.23,294.54 205.05,302.62 212.07,306.30 ZM 368.27 318.31 C367.80,319.90 368.28,320.09 372.03,319.81 L 376.33 319.50 L 384.17 301.06 C388.48,290.92 392.00,282.24 392.00,281.76 C392.00,281.28 390.11,281.02 387.80,281.19 L 383.60 281.50 L 381.05 288.75 C379.65,292.73 378.27,296.00 377.99,296.00 C377.71,296.00 376.31,292.74 374.89,288.75 L 372.30 281.50 L 362.93 280.89 L 364.54 284.69 C365.42,286.79 367.77,292.45 369.76,297.28 L 373.37 306.06 L 371.09 311.28 C369.84,314.15 368.57,317.32 368.27,318.31 ZM 279.39 307.02 C282.34,308.21 282.61,308.19 286.77,306.45 C289.16,305.45 290.59,305.28 290.82,305.95 C291.01,306.53 292.93,307.00 295.08,307.00 L 299.00 307.00 L 299.00 281.00 L 291.00 281.00 L 291.00 289.00 C291.00,295.67 290.67,297.33 289.00,299.00 C286.59,301.41 286.08,301.45 283.22,299.44 C281.22,298.04 281.00,297.03 281.00,289.44 L 281.00 281.00 L 273.00 281.00 L 273.00 290.87 C273.00,299.43 273.28,301.09 275.14,303.45 C276.31,304.94 278.23,306.55 279.39,307.02 ZM 281.97 354.66 C286.95,357.17 290.00,353.79 290.00,345.76 L 290.00 339.90 L 284.75 340.20 C279.61,340.49 279.49,340.57 279.18,343.82 C278.80,347.79 280.39,350.00 283.62,350.00 C284.93,350.00 286.00,350.42 286.00,350.94 C286.00,352.39 284.22,353.16 283.51,352.02 C282.60,350.54 278.75,350.75 279.25,352.25 C279.47,352.94 280.70,354.02 281.97,354.66 ZM 194.00 347.50 C194.00,353.50 194.30,355.00 195.50,355.00 C196.43,355.00 197.00,354.06 197.00,352.50 C197.00,350.43 197.48,350.00 199.80,350.00 C203.17,350.00 205.00,348.38 205.00,345.38 C205.00,340.85 204.03,340.00 198.89,340.00 L 194.00 340.00 ZM 320.25 298.19 C317.30,300.73 316.48,300.92 313.94,299.67 C312.11,298.76 311.42,297.51 311.19,294.66 C311.01,292.57 311.41,290.22 312.06,289.43 C313.85,287.27 319.72,287.60 320.96,289.93 C322.53,292.85 322.21,296.51 320.25,298.19 ZM 351.25 298.19 C348.30,300.73 347.48,300.92 344.94,299.67 C343.11,298.76 342.42,297.51 342.19,294.66 C342.01,292.57 342.41,290.22 343.06,289.43 C344.85,287.27 350.72,287.60 351.96,289.93 C353.53,292.85 353.21,296.51 351.25,298.19 ZM 191.25 298.19 C188.30,300.73 187.48,300.92 184.94,299.67 C183.11,298.76 182.42,297.51 182.19,294.66 C182.01,292.57 182.41,290.22 183.06,289.43 C184.85,287.27 190.72,287.60 191.96,289.93 C193.53,292.85 193.21,296.51 191.25,298.19 ZM 160.78 299.44 C159.56,300.30 158.31,301.00 158.00,301.00 C157.69,301.00 156.44,300.30 155.22,299.44 C153.60,298.31 153.00,296.88 153.00,294.14 C153.00,289.74 154.42,288.00 158.00,288.00 C161.58,288.00 163.00,289.74 163.00,294.14 C163.00,296.88 162.40,298.31 160.78,299.44 ZM 177.57 348.43 C179.80,350.66 184.69,350.45 185.96,348.07 C187.59,345.03 187.29,337.00 185.55,337.00 C184.54,337.00 184.02,338.42 183.80,341.75 C183.55,345.73 183.18,346.50 181.50,346.50 C179.82,346.50 179.45,345.73 179.20,341.75 C178.98,338.42 178.46,337.00 177.45,337.00 C175.36,337.00 175.46,346.32 177.57,348.43 ZM 237.52 348.02 C240.30,351.09 245.16,350.37 246.44,346.70 C247.88,342.60 246.18,340.50 241.42,340.50 C238.11,340.50 237.41,340.89 236.59,343.22 C235.83,345.39 236.02,346.36 237.52,348.02 ZM 297.52 348.02 C300.30,351.09 305.16,350.37 306.44,346.70 C307.88,342.60 306.18,340.50 301.42,340.50 C298.11,340.50 297.41,340.89 296.59,343.22 C295.83,345.39 296.02,346.36 297.52,348.02 ZM 222.17 352.53 C221.20,354.65 221.29,355.00 222.83,355.00 C224.10,355.00 225.50,352.86 227.74,347.50 C230.61,340.63 230.72,340.00 229.00,340.00 C227.98,340.00 226.85,340.90 226.50,342.00 C226.15,343.10 225.48,344.00 225.00,344.00 C224.52,344.00 223.85,343.10 223.50,342.00 C223.15,340.90 222.22,340.00 221.43,340.00 C219.62,340.00 219.64,340.48 221.65,345.75 C222.94,349.14 223.06,350.58 222.17,352.53 ZM 253.98 347.43 C254.82,349.67 255.54,350.00 259.48,350.00 L 264.00 350.00 L 264.00 345.00 C264.00,341.22 263.63,340.00 262.50,340.00 C261.51,340.00 261.00,340.99 261.00,342.88 C261.00,345.76 258.89,348.56 257.66,347.32 C257.30,346.96 257.00,345.17 257.00,343.33 C257.00,340.67 256.60,340.00 255.00,340.00 C252.74,340.00 252.32,343.07 253.98,347.43 ZM 259.42 299.68 C258.43,300.41 256.13,301.00 254.31,301.00 C251.18,301.00 251.00,300.80 251.00,297.45 L 251.00 293.89 L 255.74 294.20 C259.50,294.44 260.56,294.90 260.85,296.43 C261.05,297.50 260.41,298.96 259.42,299.68 ZM 257.43 287.02 C252.47,288.91 251.00,288.18 251.00,283.83 C251.00,281.14 251.23,281.00 255.50,281.00 C259.65,281.00 260.00,281.20 260.00,283.52 C260.00,285.31 259.25,286.33 257.43,287.02 ZM 314.54 349.07 C314.86,349.58 315.67,350.00 316.34,350.00 C317.16,350.00 317.63,347.85 317.76,343.50 C317.93,337.63 317.76,337.00 315.98,337.00 C313.78,337.00 313.65,337.79 314.92,343.26 C315.44,345.48 315.42,347.24 314.88,347.57 C314.38,347.88 314.23,348.56 314.54,349.07 ZM 222.00 290.02 C222.00,291.70 221.32,292.00 217.43,292.00 C213.72,292.00 212.91,291.69 213.18,290.36 C213.98,286.29 222.00,285.98 222.00,290.02 ZM 286.41 343.85 C286.70,344.32 286.38,345.46 285.70,346.39 C284.73,347.73 284.22,347.82 283.24,346.84 C282.56,346.16 282.00,345.02 282.00,344.30 C282.00,342.86 285.57,342.50 286.41,343.85 ZM 201.81 344.74 C201.43,346.73 198.51,347.63 197.53,346.06 C196.57,344.49 197.84,343.00 200.13,343.00 C201.51,343.00 202.04,343.55 201.81,344.74 ZM 243.50 344.49 C243.50,345.62 242.71,346.62 241.67,346.83 C240.25,347.10 239.91,346.65 240.17,344.84 C240.57,342.00 243.50,341.69 243.50,344.49 ZM 303.50 344.49 C303.50,345.62 302.71,346.62 301.67,346.83 C300.25,347.10 299.91,346.65 300.17,344.84 C300.57,342.00 303.50,341.69 303.50,344.49 Z" fill="rgb(18,2,0)"/>
<path d="M 153.62 307.00 C143.80,303.95 140.90,290.81 148.57,284.08 C151.57,281.44 152.85,281.00 157.58,281.00 C165.16,281.00 168.42,282.91 170.60,288.62 L 172.38 293.27 L 173.69 289.39 C174.42,287.25 176.22,284.43 177.70,283.13 C180.10,281.02 181.09,280.81 186.70,281.26 L 193.00 281.77 L 193.00 272.00 L 201.00 272.00 L 201.00 307.00 L 197.08 307.00 C194.93,307.00 193.01,306.53 192.82,305.96 C192.60,305.31 191.25,305.53 189.19,306.56 C183.36,309.46 177.08,306.40 174.38,299.33 L 172.66 294.83 L 170.58 299.10 C169.44,301.46 167.38,304.17 166.00,305.14 C162.87,307.34 157.38,308.16 153.62,307.00 ZM 243.00 274.00 L 252.94 274.00 C261.96,274.00 263.14,274.22 265.64,276.37 C268.99,279.25 269.42,284.78 266.54,287.96 C264.71,289.98 264.72,290.07 266.84,292.32 C268.96,294.59 269.66,299.13 268.38,302.46 C267.15,305.66 262.47,307.00 252.55,307.00 L 243.00 307.00 ZM 309.12 306.29 C305.43,304.47 302.06,298.51 302.02,293.72 C301.99,289.58 304.49,284.38 307.45,282.44 C309.47,281.11 311.41,280.85 316.03,281.27 L 322.00 281.81 L 322.00 272.00 L 330.00 272.00 L 330.00 307.00 L 326.08 307.00 C323.93,307.00 322.01,306.52 321.81,305.94 C321.59,305.26 320.40,305.43 318.48,306.43 C314.73,308.39 313.33,308.36 309.12,306.29 ZM 340.12 306.29 C336.43,304.47 333.06,298.51 333.02,293.72 C332.99,289.58 335.49,284.38 338.45,282.44 C340.47,281.11 342.41,280.85 347.03,281.27 L 353.00 281.81 L 353.00 272.00 L 361.00 272.00 L 361.00 307.00 L 357.08 307.00 C354.93,307.00 353.01,306.52 352.81,305.94 C352.59,305.26 351.40,305.43 349.48,306.43 C345.73,308.39 344.33,308.36 340.12,306.29 ZM 121.79 307.04 C114.18,304.66 109.76,298.64 109.64,290.49 C109.50,280.65 116.06,274.00 125.91,274.00 C132.83,274.00 137.67,276.40 140.19,281.08 L 142.03 284.50 L 138.00 284.81 C135.10,285.03 133.23,284.54 131.35,283.06 C125.30,278.31 118.00,282.28 118.00,290.32 C118.00,298.30 126.02,302.98 131.05,297.95 C132.64,296.36 134.13,295.96 137.63,296.20 L 142.15 296.50 L 139.82 299.95 C135.85,305.82 127.89,308.95 121.79,307.04 ZM 212.07 306.30 C205.05,302.62 202.23,294.54 205.52,287.60 C207.74,282.92 211.47,281.00 218.32,281.00 C224.92,281.00 228.43,283.37 230.11,288.98 C232.05,295.45 231.33,296.00 220.91,296.00 L 211.76 296.00 L 213.27 298.25 C213.68,298.86 213.97,299.31 214.38,299.62 C215.50,300.49 217.46,300.26 225.11,299.39 L 225.44 299.35 L 230.39 298.78 L 228.85 301.11 C224.86,307.11 217.80,309.30 212.07,306.30 ZM 368.27 318.31 C368.57,317.32 369.84,314.15 371.09,311.28 L 373.37 306.06 L 369.76 297.28 C367.77,292.45 365.42,286.79 364.54,284.69 L 362.93 280.89 L 372.30 281.50 L 374.89 288.75 C376.31,292.74 377.71,296.00 377.99,296.00 C378.27,296.00 379.65,292.73 381.05,288.75 L 383.60 281.50 L 387.80 281.19 C390.11,281.02 392.00,281.28 392.00,281.76 C392.00,282.24 388.48,290.92 384.17,301.06 L 376.33 319.50 L 372.03 319.81 C368.28,320.09 367.80,319.90 368.27,318.31 ZM 279.39 307.02 C278.23,306.55 276.31,304.94 275.14,303.45 C273.28,301.09 273.00,299.43 273.00,290.87 L 273.00 281.00 L 281.00 281.00 L 281.00 289.44 C281.00,297.03 281.22,298.04 283.22,299.44 C286.08,301.45 286.59,301.41 289.00,299.00 C290.67,297.33 291.00,295.67 291.00,289.00 L 291.00 281.00 L 299.00 281.00 L 299.00 307.00 L 295.08 307.00 C292.93,307.00 291.01,306.53 290.82,305.95 C290.59,305.28 289.16,305.45 286.77,306.45 C282.61,308.19 282.34,308.21 279.39,307.02 ZM 320.25 298.19 C322.21,296.51 322.53,292.85 320.96,289.93 C319.72,287.60 313.85,287.27 312.06,289.43 C311.41,290.22 311.01,292.57 311.19,294.66 C311.42,297.51 312.11,298.76 313.94,299.67 C316.48,300.92 317.30,300.73 320.25,298.19 ZM 351.25 298.19 C353.21,296.51 353.53,292.85 351.96,289.93 C350.72,287.60 344.85,287.27 343.06,289.43 C342.41,290.22 342.01,292.57 342.19,294.66 C342.42,297.51 343.11,298.76 344.94,299.67 C347.48,300.92 348.30,300.73 351.25,298.19 ZM 191.25 298.19 C193.21,296.51 193.53,292.85 191.96,289.93 C190.72,287.60 184.85,287.27 183.06,289.43 C182.41,290.22 182.01,292.57 182.19,294.66 C182.42,297.51 183.11,298.76 184.94,299.67 C187.48,300.92 188.30,300.73 191.25,298.19 ZM 160.78 299.44 C162.40,298.31 163.00,296.88 163.00,294.14 C163.00,289.74 161.58,288.00 158.00,288.00 C154.42,288.00 153.00,289.74 153.00,294.14 C153.00,296.88 153.60,298.31 155.22,299.44 C156.44,300.30 157.69,301.00 158.00,301.00 C158.31,301.00 159.56,300.30 160.78,299.44 ZM 259.42 299.68 C260.41,298.96 261.05,297.50 260.85,296.43 C260.56,294.90 259.50,294.44 255.74,294.20 L 251.00 293.89 L 251.00 297.45 C251.00,300.80 251.18,301.00 254.31,301.00 C256.13,301.00 258.43,300.41 259.42,299.68 ZM 257.43 287.02 C259.25,286.33 260.00,285.31 260.00,283.52 C260.00,281.20 259.65,281.00 255.50,281.00 C251.23,281.00 251.00,281.14 251.00,283.83 C251.00,288.18 252.47,288.91 257.43,287.02 ZM 222.00 290.02 C222.00,285.98 213.98,286.29 213.18,290.36 C212.91,291.69 213.72,292.00 217.43,292.00 C221.32,292.00 222.00,291.70 222.00,290.02 Z" fill="rgb(245,245,232)"/>
<path d="M 281.97 354.66 C280.70,354.02 279.47,352.94 279.25,352.25 C278.75,350.75 282.60,350.54 283.51,352.02 C284.22,353.16 286.00,352.39 286.00,350.94 C286.00,350.42 284.93,350.00 283.62,350.00 C280.39,350.00 278.80,347.79 279.18,343.82 C279.49,340.57 279.61,340.49 284.75,340.20 L 290.00 339.90 L 290.00 345.76 C290.00,353.79 286.95,357.17 281.97,354.66 ZM 286.41 343.85 C285.57,342.50 282.00,342.86 282.00,344.30 C282.00,345.02 282.56,346.16 283.24,346.84 C284.22,347.82 284.73,347.73 285.70,346.39 C286.38,345.46 286.70,344.32 286.41,343.85 ZM 194.00 347.50 L 194.00 340.00 L 198.89 340.00 C204.03,340.00 205.00,340.85 205.00,345.38 C205.00,348.38 203.17,350.00 199.80,350.00 C197.48,350.00 197.00,350.43 197.00,352.50 C197.00,354.06 196.43,355.00 195.50,355.00 C194.30,355.00 194.00,353.50 194.00,347.50 ZM 201.81 344.74 C202.04,343.55 201.51,343.00 200.13,343.00 C197.84,343.00 196.57,344.49 197.53,346.06 C198.51,347.63 201.43,346.73 201.81,344.74 ZM 222.17 352.53 C223.06,350.58 222.94,349.14 221.65,345.75 C219.64,340.48 219.62,340.00 221.43,340.00 C222.22,340.00 223.15,340.90 223.50,342.00 C223.85,343.10 224.52,344.00 225.00,344.00 C225.48,344.00 226.15,343.10 226.50,342.00 C226.85,340.90 227.98,340.00 229.00,340.00 C230.72,340.00 230.61,340.63 227.74,347.50 C225.50,352.86 224.10,355.00 222.83,355.00 C221.29,355.00 221.20,354.65 222.17,352.53 ZM 177.57 348.43 C175.46,346.32 175.36,337.00 177.45,337.00 C178.46,337.00 178.98,338.42 179.20,341.75 C179.45,345.73 179.82,346.50 181.50,346.50 C183.18,346.50 183.55,345.73 183.80,341.75 C184.02,338.42 184.54,337.00 185.55,337.00 C187.29,337.00 187.59,345.03 185.96,348.07 C184.69,350.45 179.80,350.66 177.57,348.43 ZM 237.52 348.02 C236.02,346.36 235.83,345.39 236.59,343.22 C237.41,340.89 238.11,340.50 241.42,340.50 C246.18,340.50 247.88,342.60 246.44,346.70 C245.16,350.37 240.30,351.09 237.52,348.02 ZM 243.50 344.49 C243.50,341.69 240.57,342.00 240.17,344.84 C239.91,346.65 240.25,347.10 241.67,346.83 C242.71,346.62 243.50,345.62 243.50,344.49 ZM 253.98 347.43 C252.32,343.07 252.74,340.00 255.00,340.00 C256.60,340.00 257.00,340.67 257.00,343.33 C257.00,345.17 257.30,346.96 257.66,347.32 C258.89,348.56 261.00,345.76 261.00,342.88 C261.00,340.99 261.51,340.00 262.50,340.00 C263.63,340.00 264.00,341.22 264.00,345.00 L 264.00 350.00 L 259.48 350.00 C255.54,350.00 254.82,349.67 253.98,347.43 ZM 297.52 348.02 C296.02,346.36 295.83,345.39 296.59,343.22 C297.41,340.89 298.11,340.50 301.42,340.50 C306.18,340.50 307.88,342.60 306.44,346.70 C305.16,350.37 300.30,351.09 297.52,348.02 ZM 303.50 344.49 C303.50,341.69 300.57,342.00 300.17,344.84 C299.91,346.65 300.25,347.10 301.67,346.83 C302.71,346.62 303.50,345.62 303.50,344.49 ZM 314.54 349.07 C314.23,348.56 314.38,347.88 314.88,347.57 C315.42,347.24 315.44,345.48 314.92,343.26 C313.65,337.79 313.78,337.00 315.98,337.00 C317.76,337.00 317.93,337.63 317.76,343.50 C317.63,347.85 317.16,350.00 316.34,350.00 C315.67,350.00 314.86,349.58 314.54,349.07 ZM 234.00 208.00 C234.00,158.31 233.05,162.00 245.85,162.00 C252.18,162.00 254.01,162.35 255.35,163.83 C256.83,165.47 257.00,169.94 257.00,207.08 L 257.00 248.50 L 247.90 248.15 C242.14,247.92 238.40,248.20 237.70,248.90 C234.12,252.48 234.00,251.12 234.00,208.00 Z" fill="rgb(254,218,92)"/>
</g>
</svg>