<svg xmlns="http://www.w3.org/2000/svg" width="489" height="419" viewBox="0 0 489 419">
<g>
<path d="M 272.56 305.53 C270.40,307.16 269.65,307.32 268.67,306.33 C268.30,305.97 268.00,261.93 268.00,208.48 L 268.00 111.30 L 270.29 107.90 L 272.58 104.50 L 287.04 104.21 C294.99,104.06 302.50,104.17 303.73,104.48 C304.41,104.65 305.01,104.75 305.53,105.00 C309.00,106.72 309.00,115.48 309.00,199.86 C309.00,202.62 309.00,205.46 309.00,208.39 C309.00,276.16 308.68,306.08 307.94,306.54 C307.35,306.90 306.08,306.48 305.11,305.60 C302.63,303.36 275.51,303.30 272.56,305.53 ZM 178.44 305.47 C176.03,307.29 175.07,307.36 174.45,305.74 C174.19,305.05 174.09,260.51 174.24,206.76 L 174.50 109.05 L 177.12 106.43 C179.71,103.83 179.84,103.81 194.38,103.94 C202.44,104.02 209.71,104.34 210.55,104.66 C210.98,104.82 211.36,104.96 211.71,105.16 C215.00,107.05 215.00,114.66 215.00,204.74 L 215.00 208.39 C215.00,272.19 214.66,306.10 214.00,306.50 C213.45,306.84 212.00,306.41 210.78,305.56 C207.64,303.36 181.33,303.29 178.44,305.47 Z" fill="rgb(0,150,177)"/>
<path d="M 374.55 302.38 L 371.40 306.50 L 351.20 306.77 L 331.00 307.04 L 331.00 290.00 L 337.25 290.00 C344.22,289.99 349.38,287.64 350.95,283.75 C351.44,282.51 352.33,272.50 352.92,261.50 C354.44,232.83 356.49,226.10 366.32,217.43 L 371.69 212.70 L 365.00 206.10 C355.32,196.54 353.77,190.57 352.43,157.68 C351.62,137.90 351.25,137.26 339.97,135.95 C335.86,135.48 332.16,135.07 331.75,135.04 C331.34,135.02 331.00,129.15 331.00,122.00 C331.00,112.26 331.31,109.00 332.25,109.02 C332.94,109.02 338.75,109.47 345.17,110.00 C359.16,111.16 366.17,113.52 371.18,118.74 C378.77,126.66 379.95,131.50 381.01,159.00 C381.49,171.38 382.37,183.17 382.98,185.22 C385.16,192.59 391.90,197.99 400.78,199.47 L 405.06 200.19 L 404.78 212.80 L 404.50 225.42 L 399.00 226.53 C392.62,227.82 390.34,228.92 387.28,232.19 C382.87,236.91 381.83,242.23 381.00,264.50 C380.06,289.66 378.86,296.71 374.55,302.38 ZM 152.00 290.00 L 152.00 307.00 L 132.04 307.00 C112.63,307.00 112.02,306.94 109.95,304.75 C103.93,298.37 103.02,294.08 102.00,267.50 C101.35,250.40 100.69,243.26 99.44,239.69 C97.63,234.48 92.05,228.30 88.32,227.37 C87.04,227.05 85.99,226.38 85.97,225.89 C85.95,225.40 85.92,219.29 85.90,212.30 L 85.87 199.60 L 90.39 197.30 C99.00,192.93 101.97,183.78 102.00,161.50 C102.03,136.53 104.83,124.87 112.31,118.46 C118.76,112.95 125.65,110.88 139.75,110.26 L 152.00 109.71 L 152.00 136.00 L 146.75 136.01 C139.66,136.01 134.28,137.64 132.54,140.30 C131.50,141.89 130.82,148.34 130.09,163.50 C128.68,192.65 126.96,198.56 117.15,207.80 C113.66,211.09 111.95,213.36 112.65,213.80 C117.22,216.69 123.34,223.79 125.11,228.27 C128.26,236.27 128.94,241.00 130.00,262.27 C131.08,284.11 131.67,286.13 137.67,288.64 C139.47,289.39 143.43,290.00 146.47,290.00 Z" fill="rgb(0,190,98)"/>
<path d="M 264.27 307.75 C263.53,309.88 260.50,309.13 257.61,306.11 C254.14,302.50 255.98,300.69 259.63,304.12 C261.54,305.92 262.29,306.15 262.91,305.14 C263.58,304.07 263.81,304.07 264.21,305.17 C264.48,305.90 264.51,307.06 264.27,307.75 ZM 226.50 151.00 C225.73,152.24 224.30,152.29 223.57,151.11 C223.27,150.63 223.72,149.65 224.58,148.94 C226.63,147.23 231.00,147.08 231.00,148.72 C231.00,149.42 230.13,150.00 229.06,150.00 C227.99,150.00 226.84,150.45 226.50,151.00 ZM 262.97 153.47 C263.64,154.27 264.01,155.46 263.80,156.10 C263.58,156.75 262.63,156.09 261.68,154.64 C259.87,151.87 260.88,150.95 262.97,153.47 ZM 221.69 157.45 C220.10,159.04 219.00,159.44 219.00,158.43 C219.00,157.37 222.09,154.76 222.67,155.33 C222.98,155.65 222.54,156.60 221.69,157.45 Z" fill="rgb(19,3,0)"/>
<path d="M 221.69 157.45 C221.90,157.24 222.09,157.02 222.24,156.81 C222.36,164.40 222.37,194.93 222.26,231.16 C222.12,273.05 221.87,307.47 221.69,307.64 C221.51,307.82 220.83,307.43 220.18,306.78 C219.29,305.89 219.00,287.27 219.00,231.73 C219.00,182.14 219.14,164.65 219.79,158.90 C220.26,158.71 220.92,158.22 221.69,157.45 ZM 222.21 155.29 C221.74,155.41 221.04,155.88 220.41,156.44 C220.42,156.44 220.42,156.43 220.43,156.43 C221.21,155.64 222.00,155.00 222.18,155.00 C222.19,155.00 222.20,155.10 222.21,155.29 Z" fill="rgb(20,4,1)"/>
<path d="M 178.44 305.47 C181.33,303.29 207.64,303.36 210.78,305.56 C212.00,306.41 213.45,306.84 214.00,306.50 C214.57,306.15 214.91,280.26 214.98,231.23 C215.11,270.29 215.50,304.00 216.13,304.21 C216.82,304.44 216.99,305.46 216.57,306.79 C216.05,308.41 215.08,309.00 212.93,309.00 C211.32,309.00 210.00,308.52 210.00,307.94 C210.00,307.36 209.55,307.16 209.00,307.50 C208.45,307.84 208.00,307.64 208.00,307.06 C208.00,306.36 203.18,306.00 193.97,306.00 C182.42,306.00 179.84,306.27 179.36,307.50 C178.81,308.94 174.89,309.40 172.25,308.34 C171.26,307.94 171.00,287.29 171.00,209.80 L 171.00 111.77 L 175.05 108.22 C177.27,106.27 178.65,104.40 178.10,104.06 C177.55,103.72 177.47,102.86 177.91,102.15 C178.55,101.10 178.99,101.13 180.17,102.31 C181.26,103.41 184.64,103.81 193.81,103.94 C194.05,103.94 194.28,103.94 194.50,103.94 L 194.38 103.94 C179.84,103.81 179.71,103.83 177.12,106.43 L 174.50 109.05 L 174.24 206.76 C174.09,260.51 174.19,305.05 174.45,305.74 C175.07,307.36 176.03,307.29 178.44,305.47 ZM 272.56 305.53 C275.51,303.30 302.63,303.36 305.11,305.60 C306.08,306.48 307.35,306.90 307.94,306.54 C308.68,306.08 309.00,276.16 309.00,208.39 C309.00,205.46 309.00,202.62 309.00,199.86 C309.00,115.48 309.00,106.72 305.53,105.00 C305.01,104.75 304.41,104.65 303.73,104.48 C302.50,104.17 294.99,104.06 287.04,104.21 L 272.58 104.50 L 270.29 107.90 L 268.00 111.30 L 268.00 118.59 C267.83,111.85 267.56,109.38 267.17,109.01 C265.12,107.10 271.20,101.13 274.55,101.77 C275.90,102.02 277.00,102.63 277.00,103.12 C277.00,103.60 282.17,104.00 288.50,104.00 C298.06,104.00 300.00,103.75 300.00,102.50 C300.00,100.15 304.37,100.70 306.87,103.36 L 309.09 105.73 L 309.02 204.77 C308.97,278.82 309.25,303.92 310.11,304.20 C310.82,304.44 310.99,305.44 310.57,306.79 C310.05,308.41 309.08,309.00 306.93,309.00 C305.32,309.00 304.00,308.52 304.00,307.94 C304.00,307.36 303.55,307.16 303.00,307.50 C302.45,307.84 302.00,307.64 302.00,307.06 C302.00,306.37 297.46,306.00 288.93,306.00 C278.64,306.00 275.54,306.32 274.36,307.50 C272.68,309.17 267.00,309.56 267.00,308.00 C267.00,307.45 266.33,307.00 265.50,307.00 C265.05,307.00 264.65,307.13 264.37,307.34 C264.48,306.73 264.45,305.95 264.28,305.36 C264.95,306.05 266.63,306.39 267.24,305.75 C267.36,305.61 267.70,261.57 267.99,207.88 C267.99,206.93 268.00,206.00 268.00,205.07 L 268.00 208.48 C268.00,261.93 268.30,305.97 268.67,306.33 C269.65,307.32 270.40,307.16 272.56,305.53 ZM 352.80 165.90 C354.11,191.67 356.19,197.40 365.00,206.10 L 371.69 212.70 L 366.32 217.43 C358.42,224.40 355.55,230.11 353.93,246.97 C353.94,246.35 353.47,246.00 352.50,246.00 C351.67,246.00 351.00,245.11 351.00,244.00 C351.00,242.90 351.38,242.00 351.83,242.00 C352.29,242.00 352.67,240.59 352.67,238.86 C352.67,237.04 353.39,235.19 354.39,234.46 C355.61,233.57 355.74,233.08 354.86,232.79 C353.94,232.48 354.19,231.24 355.80,228.15 C357.01,225.84 358.00,223.35 358.00,222.62 C358.00,220.98 361.44,217.77 362.29,218.62 C362.63,218.97 363.66,218.96 364.57,218.61 C365.84,218.13 365.96,217.66 365.10,216.62 C364.25,215.59 364.35,214.95 365.53,213.98 C366.90,212.84 366.78,212.38 364.44,209.94 C362.99,208.43 361.85,206.92 361.90,206.59 C361.96,206.27 361.82,206.11 361.60,206.25 C360.83,206.74 357.00,202.66 357.00,201.35 C357.00,200.61 356.52,200.00 355.94,200.00 C355.36,200.00 355.16,199.55 355.50,199.00 C355.84,198.45 355.75,198.00 355.31,198.00 C354.86,198.00 354.40,196.60 354.28,194.89 C354.16,193.18 353.55,191.16 352.92,190.40 C352.29,189.65 352.06,187.90 352.41,186.51 C352.77,185.06 352.61,184.00 352.02,184.00 C350.45,184.00 350.81,180.01 352.44,179.38 C353.58,178.95 353.65,178.33 352.78,176.42 C352.17,175.09 351.30,174.00 350.84,174.00 C350.38,174.00 350.00,172.43 350.00,170.50 C350.00,167.93 350.43,167.00 351.63,167.00 C352.25,167.00 352.63,166.80 352.80,165.90 ZM 152.00 290.00 L 152.02 296.75 C152.02,300.46 152.43,304.13 152.92,304.91 C153.41,305.68 153.58,306.92 153.30,307.66 C152.89,308.72 148.37,309.00 131.50,309.00 C112.96,309.00 110.14,308.79 109.60,307.41 C109.27,306.54 109.25,305.41 109.56,304.91 C109.87,304.41 109.27,304.00 108.24,304.00 C105.41,304.00 102.54,299.99 102.16,295.50 C101.98,293.30 101.41,291.07 100.91,290.55 C99.46,289.04 99.85,286.00 101.50,286.00 C101.55,286.00 101.59,286.00 101.63,286.00 C102.24,286.00 102.62,286.00 102.79,285.81 C103.07,285.50 102.78,284.67 102.01,282.45 L 101.90 282.15 C101.30,280.42 100.40,279.00 99.90,279.00 C99.41,279.00 99.00,275.16 99.00,270.47 C99.00,263.81 99.33,261.81 100.50,261.36 C101.02,261.16 101.41,260.62 101.68,259.87 C101.79,262.16 101.89,264.70 102.00,267.50 C103.02,294.08 103.93,298.37 109.95,304.75 C112.02,306.94 112.63,307.00 132.04,307.00 L 152.00 307.00 ZM 374.55 302.38 C378.86,296.71 380.06,289.66 381.00,264.50 C381.09,262.24 381.17,260.16 381.26,258.23 C381.43,258.84 381.67,259.30 382.00,259.50 C383.69,260.54 383.26,278.89 381.50,280.64 C379.81,282.33 379.47,286.00 381.00,286.00 C382.29,286.00 382.30,290.30 381.02,291.58 C380.48,292.12 379.91,294.24 379.77,296.28 C379.62,298.32 379.09,300.00 378.58,300.00 C378.08,300.00 377.97,300.30 378.34,300.67 C378.71,301.05 377.77,302.16 376.26,303.16 C374.74,304.15 373.49,305.31 373.48,305.73 C373.48,306.16 373.11,307.06 372.68,307.75 C372.08,308.69 366.53,309.00 350.55,309.00 C332.69,309.00 329.12,308.76 328.65,307.53 C328.34,306.72 328.74,305.40 329.54,304.60 C330.52,303.62 331.00,300.99 331.00,296.57 L 331.00 307.04 L 351.20 306.77 L 371.40 306.50 ZM 381.66 251.48 C382.50,239.78 383.90,235.81 387.28,232.19 C390.34,228.92 392.62,227.82 399.00,226.53 L 404.50 225.42 L 404.78 212.80 L 405.06 200.19 L 400.78 199.47 C391.90,197.99 385.16,192.59 382.98,185.22 C382.59,183.90 382.08,178.53 381.64,171.57 C381.86,172.19 382.14,172.50 382.50,172.64 C384.13,173.26 384.60,178.62 383.07,179.17 C382.56,179.35 383.03,181.43 384.11,183.78 C385.20,186.13 385.77,188.56 385.39,189.18 C385.00,189.81 385.14,190.03 385.69,189.69 C386.24,189.35 387.96,190.39 389.50,192.00 C391.04,193.61 392.69,194.69 393.15,194.41 C393.62,194.12 394.00,194.36 394.00,194.94 C394.00,195.52 395.03,196.00 396.28,196.00 C397.53,196.00 399.18,196.86 399.94,197.91 C401.14,199.58 401.50,199.64 402.76,198.38 C403.88,197.27 404.54,197.20 405.61,198.09 C406.68,198.98 407.00,202.48 407.00,213.12 L 407.00 213.98 C407.00,223.00 407.00,225.97 405.65,226.84 C404.99,227.26 404.00,227.18 402.53,227.06 C402.44,227.05 402.35,227.05 402.25,227.04 C401.01,226.94 400.00,227.39 400.00,228.04 C400.00,228.79 398.89,229.06 397.00,228.79 C395.35,228.54 394.00,228.72 394.00,229.17 C394.00,229.63 393.17,230.00 392.15,230.00 C389.77,230.00 387.28,232.82 386.84,236.00 C386.65,237.38 385.71,239.38 384.74,240.45 C383.50,241.82 383.16,243.31 383.57,245.51 C383.98,247.69 383.68,249.02 382.58,249.94 C382.21,250.24 381.90,250.79 381.66,251.48 ZM 102.70 143.65 C102.56,143.17 102.20,143.00 101.58,143.00 C100.56,143.00 100.00,142.11 100.00,140.50 C100.00,139.12 100.48,138.00 101.07,138.00 C101.70,138.00 101.86,137.14 101.46,135.88 C100.83,133.88 101.40,132.05 104.62,125.85 C105.38,124.39 106.00,122.56 106.00,121.78 C106.00,119.61 111.34,115.00 113.86,115.00 C115.10,115.00 115.87,114.60 115.57,114.11 C115.27,113.63 115.80,112.99 116.76,112.70 C117.72,112.41 120.97,111.23 123.99,110.08 C130.61,107.57 132.00,107.49 132.00,109.65 C132.00,111.01 132.33,110.92 133.87,109.15 C136.02,106.67 139.80,106.31 140.64,108.50 C141.02,109.49 142.46,109.92 145.68,109.99 L 139.75 110.26 C125.65,110.88 118.76,112.95 112.31,118.46 C106.90,123.10 103.94,130.48 102.70,143.65 ZM 129.97 165.99 C129.84,169.58 130.15,173.00 131.00,173.00 C132.61,173.00 132.16,178.72 130.50,179.36 C128.84,180.00 128.42,183.00 130.00,183.00 C130.55,183.00 131.00,183.90 131.00,185.00 C131.00,186.10 130.65,187.00 130.21,187.00 C129.78,187.00 129.36,187.85 129.28,188.88 C129.21,189.91 128.67,192.50 128.10,194.63 C127.53,196.76 127.01,198.95 126.96,199.50 C126.90,200.05 126.21,200.86 125.43,201.30 C124.64,201.74 124.00,202.70 124.00,203.43 C124.00,204.17 122.26,206.34 120.12,208.27 C117.54,210.61 116.25,212.62 116.25,214.34 C116.25,215.65 117.03,217.18 118.55,218.90 C116.59,216.81 114.50,214.96 112.65,213.80 C111.95,213.36 113.66,211.09 117.15,207.80 C126.67,198.83 128.57,193.00 129.97,165.99 ZM 381.00 158.81 C379.94,131.48 378.75,126.64 371.18,118.74 C368.07,115.49 364.18,113.35 358.32,111.92 C358.45,111.81 358.62,111.58 358.85,111.21 C359.46,110.24 360.34,110.18 362.39,110.96 C363.89,111.53 364.87,112.41 364.56,112.90 C364.25,113.40 364.90,113.58 366.00,113.29 C368.37,112.67 371.09,114.60 370.40,116.41 C369.81,117.93 372.52,120.42 373.85,119.59 C374.76,119.03 377.30,123.72 380.71,132.23 C381.92,135.27 382.05,136.48 381.18,136.77 C379.50,137.33 379.72,139.95 381.50,140.64 C383.18,141.28 383.64,148.00 382.00,148.00 C381.42,148.00 381.04,152.16 381.00,158.81 ZM 152.00 110.00 L 152.02 121.25 C152.02,127.44 152.43,133.13 152.92,133.91 C154.44,136.30 152.97,138.00 149.39,138.00 C147.53,138.00 146.00,137.55 146.00,137.00 C146.00,135.52 144.57,135.76 138.98,138.20 C135.79,139.59 134.12,140.88 134.44,141.70 C134.71,142.42 134.50,143.00 133.97,143.00 C133.44,143.00 133.00,146.09 133.00,149.88 C133.00,154.77 132.57,157.11 131.50,158.00 C130.75,158.62 130.24,161.48 130.04,164.54 C130.06,164.20 130.07,163.85 130.09,163.50 C130.82,148.34 131.50,141.89 132.54,140.30 C134.28,137.64 139.66,136.01 146.75,136.01 L 152.00 136.00 ZM 214.99 171.56 C214.94,112.65 214.54,106.79 211.71,105.16 C211.36,104.96 210.98,104.82 210.55,104.66 C209.77,104.36 203.40,104.06 196.02,103.96 C204.49,104.04 206.00,103.78 206.00,102.55 C206.00,99.99 210.39,100.75 213.33,103.82 C214.81,105.37 215.72,106.94 215.35,107.32 C214.97,107.69 215.19,108.00 215.83,108.00 C216.48,108.00 217.00,109.12 217.00,110.50 C217.00,111.88 216.55,113.00 216.00,113.00 C215.45,113.00 215.11,138.86 214.99,171.56 ZM 353.91 247.17 C353.52,251.24 353.21,255.96 352.92,261.50 C352.33,272.50 351.44,282.51 350.95,283.75 C349.38,287.64 344.22,289.99 337.25,290.00 L 334.99 290.00 C340.91,289.87 348.88,284.88 348.97,281.18 C348.99,280.45 349.67,279.18 350.50,278.36 C351.33,277.53 352.00,275.38 352.00,273.58 C352.00,271.77 352.29,267.53 352.64,264.15 C353.20,258.85 353.06,258.00 351.64,258.00 C349.26,258.00 349.51,252.49 352.00,250.00 C353.15,248.85 353.79,247.87 353.91,247.17 ZM 101.61 173.36 C101.37,173.13 101.00,173.00 100.50,173.00 C99.27,173.00 99.00,171.22 99.00,163.00 C99.00,157.48 99.42,153.00 99.93,153.00 C100.90,153.00 101.41,151.69 102.48,146.39 C102.16,150.79 102.01,155.80 102.00,161.50 C101.99,165.96 101.87,169.89 101.61,173.36 ZM 331.87 135.05 C332.64,135.12 336.13,135.51 339.97,135.95 C350.70,137.19 351.56,137.83 352.31,154.88 C351.86,150.50 351.23,148.01 350.43,147.39 C349.65,146.78 349.00,145.40 349.00,144.31 C349.00,141.05 340.08,134.26 339.21,136.86 C338.62,138.63 333.88,138.21 332.39,136.25 C332.19,135.99 332.02,135.60 331.87,135.05 ZM 124.27 226.52 C124.47,226.81 124.74,227.00 125.05,227.00 C126.31,227.00 128.94,232.97 129.23,236.49 C129.34,237.87 129.79,239.00 130.22,239.00 C131.46,239.00 131.13,242.47 129.75,243.87 C128.75,244.88 128.85,245.39 130.25,246.43 C132.10,247.80 132.70,253.00 131.00,253.00 C130.42,253.00 130.00,256.29 130.00,260.88 C130.00,261.47 130.00,262.03 130.01,262.55 L 130.00 262.27 C128.94,241.00 128.26,236.27 125.11,228.27 C124.89,227.72 124.61,227.13 124.27,226.52 ZM 358.08 111.86 C354.56,111.02 350.34,110.43 345.17,110.00 C343.84,109.89 342.54,109.78 341.31,109.68 C342.57,109.60 343.08,109.25 343.35,108.54 C344.11,106.54 347.71,106.56 349.72,108.57 C350.95,109.81 351.46,109.87 352.07,108.88 C353.05,107.30 357.99,109.25 358.02,111.23 C358.02,111.53 358.04,111.74 358.08,111.86 ZM 130.21 266.36 C130.43,268.40 130.85,269.46 131.56,270.05 C132.75,271.04 133.05,272.95 132.84,278.12 C132.54,285.45 132.95,286.42 136.30,286.47 C137.72,286.49 138.39,287.03 138.18,288.00 C138.10,288.37 138.06,288.64 138.08,288.79 C137.93,288.74 137.80,288.69 137.67,288.64 C132.07,286.30 131.19,284.38 130.21,266.36 ZM 86.09 199.49 C86.38,197.41 86.97,196.75 88.09,195.70 C89.39,194.49 90.58,193.61 90.73,193.75 C91.85,194.78 94.24,193.57 95.18,191.50 C95.81,190.12 96.89,189.00 97.59,189.00 C97.90,189.00 98.19,188.88 98.45,188.67 C96.62,192.80 94.00,195.47 90.39,197.30 ZM 101.23 252.09 C100.89,251.21 100.46,250.46 99.93,249.93 C98.70,248.70 97.95,246.78 98.08,245.18 C98.19,243.71 97.93,241.67 97.50,240.65 C96.98,239.45 97.20,238.45 98.10,237.80 C98.26,237.69 98.39,237.59 98.50,237.51 C98.88,238.24 99.20,238.97 99.44,239.69 C100.22,241.92 100.77,245.53 101.23,252.09 ZM 93.14 230.43 C91.96,229.79 89.89,229.37 88.29,229.47 C86.38,229.59 84.88,229.13 84.58,228.34 C84.29,227.60 84.49,227.00 85.00,227.00 C85.55,227.00 85.90,220.95 85.84,212.45 C85.80,207.69 85.79,204.48 85.87,202.23 L 85.90 212.30 C85.92,219.29 85.95,225.40 85.97,225.89 C85.99,226.38 87.04,227.05 88.32,227.37 C89.76,227.73 91.47,228.87 93.14,230.43 ZM 99.69 185.22 C99.65,184.61 99.46,184.06 99.10,183.70 C97.42,182.02 97.78,179.51 100.00,177.50 C100.60,176.96 101.06,176.40 101.39,175.87 C101.01,179.51 100.46,182.59 99.69,185.22 ZM 138.38 288.89 C138.55,288.79 138.80,288.58 139.13,288.25 C140.82,286.58 142.82,286.67 144.64,288.50 C145.47,289.33 147.46,290.00 149.07,290.00 L 146.47 290.00 C143.78,290.00 140.38,289.52 138.38,288.89 ZM 98.34 237.20 C98.18,237.24 97.98,237.30 97.75,237.37 C96.53,237.77 96.00,237.40 96.00,236.17 C96.00,235.20 95.46,233.86 94.80,233.20 C94.14,232.54 94.02,232.00 94.52,232.00 C94.58,232.00 94.62,231.99 94.65,231.98 C96.07,233.56 97.37,235.38 98.34,237.20 ZM 335.00 109.19 C333.51,109.08 332.51,109.02 332.25,109.02 C331.46,109.01 331.11,111.34 331.02,117.99 L 331.00 108.74 ZM 119.06 219.46 C119.39,219.80 119.74,220.14 120.12,220.50 C122.26,222.47 124.00,224.74 124.00,225.54 C124.00,225.83 124.06,226.10 124.17,226.33 C122.96,224.17 121.11,221.70 119.06,219.46 ZM 263.96 308.33 C263.78,309.01 263.02,309.18 261.99,308.92 C262.84,309.06 263.53,308.88 263.96,308.33 ZM 263.98 304.63 C263.78,304.27 263.60,304.25 263.32,304.56 C263.73,304.01 263.95,304.04 263.98,304.63 Z" fill="rgb(18,3,1)"/>
<path d="M 0.00 0.00 L 489.00 0.00 L 489.00 419.00 L 0.00 419.00 ZM 264.27 307.75 C264.31,307.63 264.35,307.49 264.37,307.34 C264.65,307.13 265.05,307.00 265.50,307.00 C266.33,307.00 267.00,307.45 267.00,308.00 C267.00,309.56 272.68,309.17 274.36,307.50 C275.54,306.32 278.64,306.00 288.93,306.00 C297.46,306.00 302.00,306.37 302.00,307.06 C302.00,307.64 302.45,307.84 303.00,307.50 C303.55,307.16 304.00,307.36 304.00,307.94 C304.00,308.52 305.32,309.00 306.93,309.00 C309.08,309.00 310.05,308.41 310.57,306.79 C310.99,305.44 310.82,304.44 310.11,304.20 C309.25,303.92 308.97,278.82 309.02,204.77 L 309.09 105.73 L 306.87 103.36 C304.37,100.70 300.00,100.15 300.00,102.50 C300.00,103.75 298.06,104.00 288.50,104.00 C282.17,104.00 277.00,103.60 277.00,103.12 C277.00,102.63 275.90,102.02 274.55,101.77 C271.20,101.13 265.12,107.10 267.17,109.01 C267.56,109.38 267.83,111.85 268.00,118.59 L 268.00 205.07 C268.00,206.00 267.99,206.93 267.99,207.88 C267.70,261.57 267.36,305.61 267.24,305.75 C266.63,306.39 264.95,306.05 264.28,305.36 C264.26,305.29 264.24,305.23 264.21,305.17 C264.13,304.94 264.05,304.76 263.98,304.63 C263.95,304.04 263.73,304.01 263.32,304.56 C263.20,304.69 263.07,304.89 262.91,305.14 C262.77,305.37 262.62,305.54 262.45,305.63 C262.76,301.88 263.00,269.79 263.00,231.08 L 263.00 156.15 L 262.98 156.13 C263.38,156.42 263.69,156.43 263.80,156.10 C264.01,155.46 263.64,154.27 262.97,153.47 C260.93,151.01 259.92,151.82 261.55,154.43 L 260.41 153.08 L 257.82 150.00 L 242.59 150.00 C230.65,150.00 228.05,150.02 226.29,151.29 C226.37,151.20 226.44,151.10 226.50,151.00 C226.84,150.45 227.99,150.00 229.06,150.00 C230.13,150.00 231.00,149.42 231.00,148.72 C231.00,147.08 226.63,147.23 224.58,148.94 C223.72,149.65 223.27,150.63 223.57,151.11 C224.09,151.96 224.98,152.17 225.72,151.76 C225.47,152.00 225.21,152.27 224.92,152.58 L 222.50 155.16 L 222.50 155.26 C222.42,155.24 222.32,155.26 222.21,155.29 C222.20,155.10 222.19,155.00 222.18,155.00 C222.00,155.00 221.21,155.64 220.43,156.43 C220.42,156.43 220.42,156.44 220.41,156.44 C219.65,157.13 219.00,157.94 219.00,158.43 C219.00,158.95 219.29,159.10 219.79,158.90 C219.14,164.65 219.00,182.14 219.00,231.73 C219.00,287.27 219.29,305.89 220.18,306.78 C220.83,307.43 221.51,307.82 221.69,307.64 C221.84,307.50 222.03,284.64 222.17,253.54 C222.13,283.26 222.24,305.17 222.45,305.73 C223.26,307.85 226.58,307.16 227.95,304.58 C229.66,301.41 231.42,301.03 244.67,301.01 C254.10,301.00 255.76,301.13 258.03,302.86 C255.53,301.32 254.70,303.08 257.61,306.11 C259.15,307.73 260.74,308.69 261.99,308.91 L 262.00 308.92 C263.02,309.18 263.78,309.01 263.96,308.33 C264.09,308.17 264.19,307.97 264.27,307.75 ZM 214.99 171.56 C215.11,138.86 215.45,113.00 216.00,113.00 C216.55,113.00 217.00,111.88 217.00,110.50 C217.00,109.12 216.48,108.00 215.83,108.00 C215.19,108.00 214.97,107.69 215.35,107.32 C215.72,106.94 214.81,105.37 213.33,103.82 C210.39,100.75 206.00,99.99 206.00,102.55 C206.00,103.78 204.49,104.04 196.02,103.96 L 196.02 103.96 C195.52,103.95 195.01,103.95 194.50,103.94 L 194.50 103.94 C194.27,103.94 194.05,103.94 193.81,103.94 C184.64,103.81 181.26,103.41 180.17,102.31 C178.99,101.13 178.55,101.10 177.91,102.15 C177.47,102.86 177.55,103.72 178.10,104.06 C178.65,104.40 177.27,106.27 175.05,108.22 L 171.00 111.77 L 171.00 209.80 C171.00,287.29 171.26,307.94 172.25,308.34 C174.89,309.40 178.81,308.94 179.36,307.50 C179.84,306.27 182.42,306.00 193.97,306.00 C203.18,306.00 208.00,306.36 208.00,307.06 C208.00,307.64 208.45,307.84 209.00,307.50 C209.55,307.16 210.00,307.36 210.00,307.94 C210.00,308.52 211.32,309.00 212.93,309.00 C215.08,309.00 216.05,308.41 216.57,306.79 C216.99,305.46 216.82,304.44 216.13,304.21 C215.50,304.00 215.11,270.29 214.98,231.23 C214.99,224.11 215.00,216.49 215.00,208.39 L 215.00 204.74 L 215.00 204.70 C215.00,192.11 215.00,181.13 214.99,171.56 ZM 352.80 165.90 C352.63,166.80 352.25,167.00 351.63,167.00 C350.43,167.00 350.00,167.93 350.00,170.50 C350.00,172.43 350.38,174.00 350.84,174.00 C351.30,174.00 352.17,175.09 352.78,176.42 C353.65,178.33 353.58,178.95 352.44,179.38 C350.81,180.01 350.45,184.00 352.02,184.00 C352.61,184.00 352.77,185.06 352.41,186.51 C352.06,187.90 352.29,189.65 352.92,190.40 C353.55,191.16 354.16,193.18 354.28,194.89 C354.40,196.60 354.86,198.00 355.31,198.00 C355.75,198.00 355.84,198.45 355.50,199.00 C355.16,199.55 355.36,200.00 355.94,200.00 C356.52,200.00 357.00,200.61 357.00,201.35 C357.00,202.66 360.83,206.74 361.60,206.25 C361.82,206.11 361.96,206.27 361.90,206.59 C361.85,206.92 362.99,208.43 364.44,209.94 C366.78,212.38 366.90,212.84 365.53,213.98 C364.35,214.95 364.25,215.59 365.10,216.62 C365.96,217.66 365.84,218.13 364.57,218.61 C363.66,218.96 362.63,218.97 362.29,218.62 C361.44,217.77 358.00,220.98 358.00,222.62 C358.00,223.35 357.01,225.84 355.80,228.15 C354.19,231.24 353.94,232.48 354.86,232.79 C355.74,233.08 355.61,233.57 354.39,234.46 C353.39,235.19 352.67,237.04 352.67,238.86 C352.67,240.59 352.29,242.00 351.83,242.00 C351.38,242.00 351.00,242.90 351.00,244.00 C351.00,245.11 351.67,246.00 352.50,246.00 C353.47,246.00 353.94,246.35 353.93,246.97 C353.92,247.04 353.92,247.10 353.91,247.17 C353.79,247.87 353.15,248.85 352.00,250.00 C349.51,252.49 349.26,258.00 351.64,258.00 C353.06,258.00 353.20,258.85 352.64,264.15 C352.29,267.53 352.00,271.77 352.00,273.58 C352.00,275.38 351.33,277.53 350.50,278.36 C349.67,279.18 348.99,280.45 348.97,281.18 C348.88,284.88 340.91,289.87 334.99,290.00 L 331.00 290.00 L 331.00 296.57 C331.00,300.99 330.52,303.62 329.54,304.60 C328.74,305.40 328.34,306.72 328.65,307.53 C329.12,308.76 332.69,309.00 350.55,309.00 C366.53,309.00 372.08,308.69 372.68,307.75 C373.11,307.06 373.48,306.16 373.48,305.73 C373.49,305.31 374.74,304.15 376.26,303.16 C377.77,302.16 378.71,301.05 378.34,300.67 C377.97,300.30 378.08,300.00 378.58,300.00 C379.09,300.00 379.62,298.32 379.77,296.28 C379.91,294.24 380.48,292.12 381.02,291.58 C382.30,290.30 382.29,286.00 381.00,286.00 C379.47,286.00 379.81,282.33 381.50,280.64 C383.26,278.89 383.69,260.54 382.00,259.50 C381.67,259.30 381.43,258.84 381.26,258.23 C381.38,255.73 381.51,253.49 381.66,251.48 C381.90,250.79 382.21,250.24 382.58,249.94 C383.68,249.02 383.98,247.69 383.57,245.51 C383.16,243.31 383.50,241.82 384.74,240.45 C385.71,239.38 386.65,237.38 386.84,236.00 C387.28,232.82 389.77,230.00 392.15,230.00 C393.17,230.00 394.00,229.63 394.00,229.17 C394.00,228.72 395.35,228.54 397.00,228.79 C398.89,229.06 400.00,228.79 400.00,228.04 C400.00,227.39 401.01,226.94 402.25,227.04 C402.35,227.05 402.44,227.05 402.53,227.06 C404.00,227.18 404.99,227.26 405.65,226.84 C407.00,225.97 407.00,223.00 407.00,213.98 L 407.00 213.12 C407.00,202.48 406.68,198.98 405.61,198.09 C404.54,197.20 403.88,197.27 402.76,198.38 C401.50,199.64 401.14,199.58 399.94,197.91 C399.18,196.86 397.53,196.00 396.28,196.00 C395.03,196.00 394.00,195.52 394.00,194.94 C394.00,194.36 393.62,194.12 393.15,194.41 C392.69,194.69 391.04,193.61 389.50,192.00 C387.96,190.39 386.24,189.35 385.69,189.69 C385.14,190.03 385.00,189.81 385.39,189.18 C385.77,188.56 385.20,186.13 384.11,183.78 C383.03,181.43 382.56,179.35 383.07,179.17 C384.60,178.62 384.13,173.26 382.50,172.64 C382.14,172.50 381.86,172.19 381.64,171.57 C381.40,167.73 381.18,163.40 381.01,159.00 L 381.00 158.81 C381.04,152.16 381.42,148.00 382.00,148.00 C383.64,148.00 383.18,141.28 381.50,140.64 C379.72,139.95 379.50,137.33 381.18,136.77 C382.05,136.48 381.92,135.27 380.71,132.23 C377.30,123.72 374.76,119.03 373.85,119.59 C372.52,120.42 369.81,117.93 370.40,116.41 C371.09,114.60 368.37,112.67 366.00,113.29 C364.90,113.58 364.25,113.40 364.56,112.90 C364.87,112.41 363.89,111.53 362.39,110.96 C360.34,110.18 359.46,110.24 358.85,111.21 C358.62,111.58 358.45,111.81 358.32,111.92 C358.24,111.90 358.16,111.88 358.08,111.86 C358.04,111.74 358.02,111.53 358.02,111.23 C357.99,109.25 353.05,107.30 352.07,108.88 C351.46,109.87 350.95,109.81 349.72,108.57 C347.71,106.56 344.11,106.54 343.35,108.54 C343.08,109.25 342.57,109.60 341.31,109.68 C338.84,109.48 336.63,109.31 335.00,109.19 L 331.00 108.74 L 331.02 117.99 L 331.02 117.99 C331.01,119.19 331.00,120.52 331.00,122.00 C331.00,129.15 331.34,135.02 331.75,135.04 C331.78,135.05 331.82,135.05 331.87,135.05 C332.02,135.60 332.19,135.99 332.39,136.25 C333.88,138.21 338.62,138.63 339.21,136.86 C340.08,134.26 349.00,141.05 349.00,144.31 C349.00,145.40 349.65,146.78 350.43,147.39 C351.23,148.01 351.86,150.50 352.31,154.88 C352.35,155.77 352.39,156.70 352.43,157.68 C352.55,160.63 352.67,163.36 352.80,165.90 ZM 152.00 290.00 L 149.07 290.00 C147.46,290.00 145.47,289.33 144.64,288.50 C142.82,286.67 140.82,286.58 139.13,288.25 C138.80,288.58 138.55,288.79 138.38,288.89 C138.28,288.86 138.18,288.83 138.08,288.79 C138.06,288.64 138.10,288.37 138.18,288.00 C138.39,287.03 137.72,286.49 136.30,286.47 C132.95,286.42 132.54,285.45 132.84,278.12 C133.05,272.95 132.75,271.04 131.56,270.05 C130.85,269.46 130.43,268.40 130.21,266.36 C130.14,265.16 130.08,263.90 130.01,262.55 C130.00,262.03 130.00,261.47 130.00,260.88 C130.00,256.29 130.42,253.00 131.00,253.00 C132.70,253.00 132.10,247.80 130.25,246.43 C128.85,245.39 128.75,244.88 129.75,243.87 C131.13,242.47 131.46,239.00 130.22,239.00 C129.79,239.00 129.34,237.87 129.23,236.49 C128.94,232.97 126.31,227.00 125.05,227.00 C124.74,227.00 124.47,226.81 124.27,226.52 C124.24,226.46 124.20,226.39 124.17,226.33 C124.06,226.10 124.00,225.83 124.00,225.54 C124.00,224.74 122.26,222.47 120.12,220.50 C119.74,220.14 119.39,219.80 119.06,219.46 C118.89,219.27 118.72,219.09 118.55,218.90 C117.03,217.18 116.25,215.65 116.25,214.34 C116.25,212.62 117.54,210.61 120.12,208.27 C122.26,206.34 124.00,204.17 124.00,203.43 C124.00,202.70 124.64,201.74 125.43,201.30 C126.21,200.86 126.90,200.05 126.96,199.50 C127.01,198.95 127.53,196.76 128.10,194.63 C128.67,192.50 129.21,189.91 129.28,188.88 C129.36,187.85 129.78,187.00 130.21,187.00 C130.65,187.00 131.00,186.10 131.00,185.00 C131.00,183.90 130.55,183.00 130.00,183.00 C128.42,183.00 128.84,180.00 130.50,179.36 C132.16,178.72 132.61,173.00 131.00,173.00 C130.15,173.00 129.84,169.58 129.97,165.99 C129.99,165.51 130.01,165.03 130.04,164.54 C130.24,161.48 130.75,158.62 131.50,158.00 C132.57,157.11 133.00,154.77 133.00,149.88 C133.00,146.09 133.44,143.00 133.97,143.00 C134.50,143.00 134.71,142.42 134.44,141.70 C134.12,140.88 135.79,139.59 138.98,138.20 C144.57,135.76 146.00,135.52 146.00,137.00 C146.00,137.55 147.53,138.00 149.39,138.00 C152.97,138.00 154.44,136.30 152.92,133.91 C152.43,133.13 152.02,127.44 152.02,121.25 L 152.00 110.00 L 152.00 109.71 L 145.68 109.99 C142.46,109.92 141.02,109.49 140.64,108.50 C139.80,106.31 136.02,106.67 133.87,109.15 C132.33,110.92 132.00,111.01 132.00,109.65 C132.00,107.49 130.61,107.57 123.99,110.08 C120.97,111.23 117.72,112.41 116.76,112.70 C115.80,112.99 115.27,113.63 115.57,114.11 C115.87,114.60 115.10,115.00 113.86,115.00 C111.34,115.00 106.00,119.61 106.00,121.78 C106.00,122.56 105.38,124.39 104.62,125.85 C101.40,132.05 100.83,133.88 101.46,135.88 C101.86,137.14 101.70,138.00 101.07,138.00 C100.48,138.00 100.00,139.12 100.00,140.50 C100.00,142.11 100.56,143.00 101.58,143.00 C102.20,143.00 102.56,143.17 102.70,143.65 C102.62,144.54 102.54,145.45 102.48,146.39 C101.41,151.69 100.90,153.00 99.93,153.00 C99.42,153.00 99.00,157.48 99.00,163.00 C99.00,171.22 99.27,173.00 100.50,173.00 C101.00,173.00 101.37,173.13 101.61,173.36 C101.54,174.23 101.47,175.06 101.39,175.87 C101.06,176.40 100.60,176.96 100.00,177.50 C97.78,179.51 97.42,182.02 99.10,183.70 C99.46,184.06 99.65,184.61 99.69,185.22 C99.33,186.47 98.91,187.62 98.45,188.67 C98.19,188.88 97.90,189.00 97.59,189.00 C96.89,189.00 95.81,190.12 95.18,191.50 C94.24,193.57 91.85,194.78 90.73,193.75 C90.58,193.61 89.39,194.49 88.09,195.70 C86.97,196.75 86.38,197.41 86.09,199.49 L 85.87 199.60 L 85.87 202.23 C85.79,204.48 85.80,207.69 85.84,212.45 C85.90,220.95 85.55,227.00 85.00,227.00 C84.49,227.00 84.29,227.60 84.58,228.34 C84.88,229.13 86.38,229.59 88.29,229.47 C89.89,229.37 91.96,229.79 93.14,230.43 C93.65,230.91 94.16,231.43 94.65,231.98 C94.62,231.99 94.58,232.00 94.52,232.00 C94.02,232.00 94.14,232.54 94.80,233.20 C95.46,233.86 96.00,235.20 96.00,236.17 C96.00,237.40 96.53,237.77 97.75,237.37 C97.98,237.30 98.18,237.24 98.34,237.20 C98.40,237.30 98.45,237.41 98.50,237.51 C98.39,237.59 98.26,237.69 98.10,237.80 C97.20,238.45 96.98,239.45 97.50,240.65 C97.93,241.67 98.19,243.71 98.08,245.18 C97.95,246.78 98.70,248.70 99.93,249.93 C100.46,250.46 100.89,251.21 101.23,252.09 C101.39,254.32 101.53,256.89 101.68,259.87 C101.41,260.62 101.02,261.16 100.50,261.36 C99.33,261.81 99.00,263.81 99.00,270.47 C99.00,275.16 99.41,279.00 99.90,279.00 C100.40,279.00 101.30,280.42 101.90,282.15 L 102.01 282.45 C102.78,284.67 103.07,285.50 102.79,285.81 C102.62,286.00 102.24,286.00 101.63,286.00 C101.59,286.00 101.55,286.00 101.50,286.00 C99.85,286.00 99.46,289.04 100.91,290.55 C101.41,291.07 101.98,293.30 102.16,295.50 C102.54,299.99 105.41,304.00 108.24,304.00 C109.27,304.00 109.87,304.41 109.56,304.91 C109.25,305.41 109.27,306.54 109.60,307.41 C110.14,308.79 112.96,309.00 131.50,309.00 C148.37,309.00 152.89,308.72 153.30,307.66 C153.58,306.92 153.41,305.68 152.92,304.91 C152.43,304.13 152.02,300.46 152.02,296.75 ZM 222.32 204.88 C222.36,180.87 222.33,162.47 222.24,156.81 C222.34,156.68 222.42,156.55 222.50,156.42 ZM 259.94 304.41 C260.62,304.94 261.23,305.38 261.69,305.66 C261.25,305.50 260.70,305.10 259.94,304.41 Z" fill="rgb(18,2,0)"/>
<path d="M 222.45 305.73 C222.18,305.03 222.08,270.87 222.23,229.81 L 222.50 155.16 L 224.92 152.58 C227.32,150.03 227.50,150.00 242.59,150.00 L 257.82 150.00 L 260.41 153.08 L 263.00 156.15 L 263.00 231.08 C263.00,272.28 262.73,306.00 262.39,306.00 C262.06,306.00 260.45,304.88 258.82,303.50 C256.03,301.16 255.14,301.00 244.67,301.01 C231.42,301.03 229.66,301.41 227.95,304.58 C226.58,307.16 223.26,307.85 222.45,305.73 Z" fill="rgb(254,221,89)"/>
</g>
</svg>